<svg width="82" height="25" viewBox="0 0 82 25" fill="none" xmlns="http://www.w3.org/2000/svg">
<path d="M8.125 17.225L9 19.275C8.275 19.9 7.225 20.3 6.25 20.3C4.1 20.3 2.6 18.75 2.6 16.575V9.6H0.725V7.075H2.6V3.525H5.575V7.075H8.5V9.6H5.575V16.2C5.575 17.075 6.125 17.7 6.85 17.7C7.375 17.7 7.85 17.5 8.125 17.225ZM16.9924 6.775C20.4174 6.775 22.5424 8.95 22.5424 12.225V20H19.5674V18.45C18.6174 19.65 16.9924 20.3 15.4924 20.3C12.7424 20.3 10.6674 18.675 10.6674 16.175C10.6674 13.625 13.0424 11.875 15.9424 11.875C17.1174 11.875 18.3924 12.125 19.5674 12.575V12.225C19.5674 10.725 18.7424 9.275 16.3924 9.275C15.1674 9.275 13.9924 9.7 12.8924 10.25L11.8424 8.125C13.6674 7.225 15.3674 6.775 16.9924 6.775ZM16.1674 18.075C17.6424 18.075 19.2174 17.325 19.5674 15.95V14.5C18.6174 14.175 17.5424 14 16.3924 14C14.8674 14 13.6424 14.85 13.6424 16.075C13.6424 17.3 14.7174 18.075 16.1674 18.075ZM38.0449 7.075L32.7199 12.85L37.8699 20H34.3199L30.6699 14.85L28.8449 16.775V20H25.7949V2.525H28.8449V13.2L34.4449 7.075H38.0449ZM45.908 17.6C47.108 17.6 48.533 17.05 49.258 16.3L51.183 18.3C50.058 19.5 47.808 20.3 45.933 20.3C42.233 20.3 39.183 17.475 39.183 13.5C39.183 9.625 42.083 6.775 45.758 6.775C49.758 6.775 52.083 9.8 52.083 14.575H42.333C42.708 16.35 44.058 17.6 45.908 17.6ZM45.883 9.475C44.183 9.475 42.808 10.55 42.358 12.25H49.158C48.808 10.625 47.708 9.475 45.883 9.475Z" fill="#108CFF"/>
<path d="M54.8768 20V2.825H57.9768V20H54.8768ZM67.915 17.225L68.79 19.275C68.065 19.9 67.015 20.3 66.04 20.3C63.89 20.3 62.39 18.75 62.39 16.575V9.6H60.515V7.075H62.39V3.525H65.365V7.075H68.29V9.6H65.365V16.2C65.365 17.075 65.915 17.7 66.64 17.7C67.165 17.7 67.64 17.5 67.915 17.225Z" fill="#222222"/>
</svg>
